<?xml version="1.0" standalone="no"?>
<!DOCTYPE svg PUBLIC "-//W3C//DTD SVG 20010904//EN"
 "http://www.w3.org/TR/2001/REC-SVG-20010904/DTD/svg10.dtd">
<svg version="1.0" xmlns="http://www.w3.org/2000/svg"
 width="1030.000000pt" height="1030.000000pt" viewBox="0 0 1030.000000 1030.000000"
 preserveAspectRatio="xMidYMid meet">
<metadata>
Created by potrace 1.11, written by Peter Selinger 2001-2013
</metadata>
<g transform="translate(0.000000,1030.000000) scale(0.100000,-0.100000)"
fill="#000000" stroke="none">
<path d="M0 5675 l0 -3055 960 0 960 0 0 1105 0 1105 538 -2 537 -3 3 -1103 2
-1102 1957 2 1957 3 69 210 c37 116 104 320 148 455 44 135 123 373 174 530
51 157 162 494 245 750 83 256 194 593 245 750 51 157 130 398 175 535 45 138
124 378 175 535 52 157 130 398 175 535 45 138 122 372 170 520 49 149 162
493 251 765 89 272 164 501 166 508 4 10 -269 12 -1357 10 l-1363 -3 -240
-710 c-131 -390 -306 -910 -389 -1155 -290 -861 -447 -1328 -541 -1605 l-96
-280 0 1878 -1 1877 -960 0 -960 0 -2 -1102 -3 -1103 -537 -3 -538 -2 0 1105
0 1105 -960 0 -960 0 0 -3055z"/>
<path d="M9517 8553 c-32 -98 -94 -287 -137 -421 -92 -278 -172 -523 -405
-1237 -92 -280 -202 -619 -246 -752 -43 -134 -115 -354 -160 -490 -44 -137
-84 -259 -89 -273 -5 -14 -52 -158 -105 -320 -110 -338 -218 -668 -333 -1020
-44 -135 -144 -441 -222 -680 -78 -239 -164 -502 -191 -584 -27 -82 -49 -151
-49 -152 0 -2 151 -4 335 -4 308 0 335 1 343 18 5 9 71 206 146 437 76 231
227 692 336 1025 202 614 358 1091 880 2685 160 490 368 1122 461 1406 93 284
169 521 169 527 0 9 -89 12 -338 12 l-338 0 -57 -177z"/>
<path d="M0 1965 l0 -395 5150 0 5150 0 0 395 0 395 -5150 0 -5150 0 0 -395z"/>
</g>
</svg>
